<?xml version="1.0" encoding="iso-8859-1"?>
<!-- Uploaded to: SVG Repo, www.svgrepo.com, Generator: SVG Repo Mixer Tools -->
<svg height="800px" width="800px" version="1.1" id="Layer_1" xmlns="http://www.w3.org/2000/svg" xmlns:xlink="http://www.w3.org/1999/xlink" 
	 viewBox="0 0 512 512" xml:space="preserve">
<path style="fill:#444C6D;" d="M256,206.596c-8.982,0-17.965-0.898-35.93-3.593v39.523h71.86v-39.523
	C273.965,205.698,264.982,206.596,256,206.596"/>
<polygon style="fill:#D8D8D8;" points="229.053,242.526 282.947,242.526 256,512 "/>
<path style="fill:#DD342E;" d="M363.789,107.789C363.789,48.505,315.284,0,256,0S148.211,48.505,148.211,107.789
	S196.716,215.579,256,215.579S363.789,167.074,363.789,107.789"/>
<path id="SVGCleanerId_0" style="fill:#F86363;" d="M184.14,116.772c-5.389,0-8.982-3.593-8.982-8.982
	c0-44.912,35.93-80.842,80.842-80.842c5.389,0,8.982,3.593,8.982,8.982s-3.593,8.982-8.982,8.982
	c-35.032,0-62.877,27.846-62.877,62.877C193.123,113.179,189.53,116.772,184.14,116.772"/>
<g>
	<path id="SVGCleanerId_0_1_" style="fill:#F86363;" d="M184.14,116.772c-5.389,0-8.982-3.593-8.982-8.982
		c0-44.912,35.93-80.842,80.842-80.842c5.389,0,8.982,3.593,8.982,8.982s-3.593,8.982-8.982,8.982
		c-35.032,0-62.877,27.846-62.877,62.877C193.123,113.179,189.53,116.772,184.14,116.772"/>
</g>
</svg>